<svg width="11" height="18" viewBox="0 0 11 18" fill="none" xmlns="http://www.w3.org/2000/svg">
<path fill-rule="evenodd" clip-rule="evenodd" d="M10.9324 8.68111C10.9324 8.30222 10.7766 7.93447 10.5205 7.67816L3.26192 0.423469C3.00586 0.156015 2.63848 0 2.25996 0C1.88145 0 1.51406 0.156015 1.25801 0.423469L0.411915 1.25926C0.15586 1.51557 0 1.88332 0 2.26222C0 2.64111 0.15586 3.00886 0.411915 3.27631L5.82247 8.68111L0.411915 14.0971C0.15586 14.3534 0 14.7211 0 15.1C0 15.4789 0.15586 15.8467 0.411915 16.1141L1.25801 16.9499C1.51406 17.2062 1.88145 17.3622 2.25996 17.3622C2.63848 17.3622 3.00586 17.2062 3.26192 16.9499L10.5205 9.69521C10.7766 9.42776 10.9324 9.06001 10.9324 8.68111Z" fill="white"/>
</svg>
