<svg width="9" height="6" viewBox="0 0 9 6" fill="none" xmlns="http://www.w3.org/2000/svg">
<path fill-rule="evenodd" clip-rule="evenodd" d="M4.9427 5.47992C5.11979 5.47992 5.29166 5.40179 5.41145 5.27344L8.80208 1.63505C8.92708 1.5067 9 1.32255 9 1.13281C9 0.943081 8.92708 0.75893 8.80208 0.630581L8.41146 0.206473C8.29167 0.0781251 8.11979 -3.84752e-08 7.94271 -4.62157e-08C7.76562 -5.39563e-08 7.59375 0.078125 7.46875 0.206473L4.9427 2.91853L2.41145 0.206473C2.29166 0.0781248 2.11978 -3.00744e-07 1.9427 -3.08484e-07C1.76562 -3.16225e-07 1.59374 0.0781248 1.46874 0.206473L1.07811 0.630581C0.958323 0.758929 0.885406 0.943081 0.885406 1.13281C0.885406 1.32255 0.958323 1.5067 1.07811 1.63505L4.46874 5.27344C4.59374 5.40179 4.76562 5.47992 4.9427 5.47992Z" fill="#2D76EF"/>
</svg>
