<svg width="47" height="47" viewBox="0 0 47 47" fill="none" xmlns="http://www.w3.org/2000/svg">
<g clip-path="url(#clip0)">
<path d="M11.916 15.9312H7.1365C6.69652 15.9312 6.34009 16.2876 6.34009 16.7276V21.5071C6.34009 21.9471 6.69652 22.3035 7.1365 22.3035H11.916C12.356 22.3035 12.7124 21.9471 12.7124 21.5071V16.7276C12.7124 16.2876 12.356 15.9312 11.916 15.9312ZM11.1193 20.7103H7.93327V17.5243H11.1193V20.7103Z" fill="#2D76EF"/>
<path d="M19.8816 15.9312H15.1021C14.6625 15.9312 14.3057 16.2876 14.3057 16.7276V21.5071C14.3057 21.9471 14.6625 22.3035 15.1021 22.3035H19.8816C20.3216 22.3035 20.6784 21.9471 20.6784 21.5071V16.7276C20.6784 16.2876 20.3216 15.9312 19.8816 15.9312ZM19.0852 20.7103H15.8988V17.5243H19.0852V20.7103Z" fill="#2D76EF"/>
<path d="M27.8475 15.9312H23.068C22.628 15.9312 22.2712 16.2876 22.2712 16.7276V21.5071C22.2712 21.9471 22.628 22.3035 23.068 22.3035H27.8472C28.2872 22.3035 28.644 21.9471 28.644 21.5071V16.7276C28.644 16.2876 28.2872 15.9312 27.8475 15.9312ZM27.0508 20.7103H23.8644V17.5243H27.0508V20.7103Z" fill="#2D76EF"/>
<path d="M31.0335 22.3035H35.813C36.253 22.3035 36.6094 21.9471 36.6094 21.5071V16.7276C36.6094 16.2876 36.253 15.9312 35.813 15.9312H31.0335C30.5935 15.9312 30.2371 16.2876 30.2371 16.7276V21.5071C30.2371 21.9471 30.5935 22.3035 31.0335 22.3035ZM31.8302 17.5243H35.0162V20.7103H31.8302V17.5243Z" fill="#2D76EF"/>
<path d="M11.916 23.897H7.1365C6.69652 23.897 6.34009 24.2538 6.34009 24.6937V29.4729C6.34009 29.9129 6.69652 30.2697 7.1365 30.2697H11.916C12.356 30.2697 12.7124 29.9129 12.7124 29.4729V24.6937C12.7124 24.2538 12.356 23.897 11.916 23.897ZM11.1193 28.6765H7.93327V25.4902H11.1193V28.6765Z" fill="#2D76EF"/>
<path d="M19.8816 23.897H15.1021C14.6625 23.897 14.3057 24.2538 14.3057 24.6937V29.4729C14.3057 29.9129 14.6625 30.2697 15.1021 30.2697H19.8816C20.3216 30.2697 20.6784 29.9129 20.6784 29.4729V24.6937C20.6784 24.2538 20.3216 23.897 19.8816 23.897ZM19.0852 28.6765H15.8988V25.4902H19.0852V28.6765Z" fill="#2D76EF"/>
<path d="M27.8475 23.897H23.068C22.628 23.897 22.2712 24.2538 22.2712 24.6937V29.4729C22.2712 29.9129 22.628 30.2697 23.068 30.2697H27.8472C28.2872 30.2697 28.644 29.9129 28.644 29.4729V24.6937C28.644 24.2538 28.2872 23.897 27.8475 23.897ZM27.0508 28.6765H23.8644V25.4902H27.0508V28.6765Z" fill="#2D76EF"/>
<path d="M31.0335 30.2697H35.813C36.253 30.2697 36.6094 29.9129 36.6094 29.4729V24.6937C36.6094 24.2538 36.253 23.897 35.813 23.897H31.0335C30.5935 23.897 30.2371 24.2538 30.2371 24.6937V29.4729C30.2371 29.9129 30.5935 30.2697 31.0335 30.2697ZM31.8302 25.4902H35.0162V28.6765H31.8302V25.4902Z" fill="#2D76EF"/>
<path d="M11.916 31.8628H7.1365C6.69652 31.8628 6.34009 32.2192 6.34009 32.6592V37.4387C6.34009 37.8787 6.69652 38.2351 7.1365 38.2351H11.916C12.356 38.2351 12.7124 37.8787 12.7124 37.4387V32.6592C12.7124 32.2192 12.356 31.8628 11.916 31.8628ZM11.1193 36.642H7.93327V33.4556H11.1193V36.642Z" fill="#2D76EF"/>
<path d="M19.8816 31.8628H15.1021C14.6625 31.8628 14.3057 32.2192 14.3057 32.6592V37.4387C14.3057 37.8787 14.6625 38.2351 15.1021 38.2351H19.8816C20.3216 38.2351 20.6784 37.8787 20.6784 37.4387V32.6592C20.6784 32.2192 20.3216 31.8628 19.8816 31.8628ZM19.0852 36.642H15.8988V33.4556H19.0852V36.642Z" fill="#2D76EF"/>
<path d="M27.8475 31.8628H23.068C22.628 31.8628 22.2712 32.2192 22.2712 32.6592V37.4387C22.2712 37.8787 22.628 38.2351 23.068 38.2351H27.8472C28.2872 38.2351 28.644 37.8787 28.644 37.4387V32.6592C28.644 32.2192 28.2872 31.8628 27.8475 31.8628ZM27.0508 36.642H23.8644V33.4556H27.0508V36.642Z" fill="#2D76EF"/>
<path d="M41.3889 32.144V3.98277C41.3889 3.54279 41.0321 3.18636 40.5921 3.18636H36.6094V2.38959C36.6094 1.07001 35.5397 0 34.2198 0C32.8999 0 31.8302 1.07001 31.8302 2.38959V3.18636H30.237V2.38959C30.237 1.07001 29.167 0 27.8474 0C26.5275 0 25.4575 1.07001 25.4575 2.38959V3.18636H23.8643V2.38959C23.8643 1.07001 22.7947 0 21.4747 0C20.1548 0 19.0851 1.07001 19.0851 2.38959V3.18636H17.492V2.38959C17.492 1.07001 16.422 0 15.102 0C13.7824 0 12.7124 1.07001 12.7124 2.38959V3.18636H11.1193V2.38959C11.1193 1.07001 10.0496 0 8.72967 0C7.40973 0 6.34008 1.07001 6.34008 2.38959V3.18636H2.35696C1.91734 3.18636 1.56055 3.54279 1.56055 3.98277V42.218C1.56055 42.6579 1.91734 43.0147 2.35696 43.0147H30.5182C32.7138 46.8229 37.5808 48.1302 41.3889 45.935C45.197 43.7394 46.5044 38.8724 44.3092 35.0643C43.6096 33.8508 42.6024 32.8436 41.3889 32.144ZM33.4234 2.38959C33.4234 1.94961 33.7798 1.59318 34.2198 1.59318C34.6598 1.59318 35.0162 1.94961 35.0162 2.38959V5.57594C35.0162 6.01592 34.6598 6.37271 34.2198 6.37271C33.7798 6.37271 33.4234 6.01592 33.4234 5.57594V2.38959ZM27.0507 2.38959C27.0507 1.94961 27.4075 1.59318 27.8474 1.59318C28.2871 1.59318 28.6439 1.94961 28.6439 2.38959V5.57594C28.6439 6.01592 28.2871 6.37271 27.8474 6.37271C27.4075 6.37271 27.0507 6.01592 27.0507 5.57594V2.38959ZM20.6783 2.38959C20.6783 1.94961 21.0347 1.59318 21.4747 1.59318C21.9147 1.59318 22.2711 1.94961 22.2711 2.38959V5.57594C22.2711 6.01592 21.9147 6.37271 21.4747 6.37271C21.0347 6.37271 20.6783 6.01592 20.6783 5.57594V2.38959ZM14.3056 2.38959C14.3056 1.94961 14.6624 1.59318 15.102 1.59318C15.542 1.59318 15.8988 1.94961 15.8988 2.38959V5.57594C15.8988 6.01592 15.542 6.37271 15.102 6.37271C14.6624 6.37271 14.3056 6.01592 14.3056 5.57594V2.38959ZM7.93326 2.38959C7.93326 1.94961 8.28969 1.59318 8.72967 1.59318C9.16965 1.59318 9.52608 1.94961 9.52608 2.38959V5.57594C9.52608 6.01592 9.16965 6.37271 8.72967 6.37271C8.28969 6.37271 7.93326 6.01592 7.93326 5.57594V2.38959ZM3.15372 4.77953H6.34008V5.57594C6.34008 6.89588 7.40973 7.96553 8.72967 7.96553C10.0496 7.96553 11.1193 6.89588 11.1193 5.57594V4.77953H12.7124V5.57594C12.7124 6.89588 13.7824 7.96553 15.102 7.96553C16.422 7.96553 17.492 6.89588 17.492 5.57594V4.77953H19.0851V5.57594C19.0851 6.89588 20.1548 7.96553 21.4747 7.96553C22.7947 7.96553 23.8643 6.89588 23.8643 5.57594V4.77953H25.4575V5.57594C25.4575 6.89588 26.5275 7.96553 27.8474 7.96553C29.167 7.96553 30.237 6.89588 30.237 5.57594V4.77953H31.8302V5.57594C31.8302 6.89588 32.9002 7.96553 34.2198 7.96553C35.5397 7.96553 36.6097 6.89588 36.6097 5.57594V4.77953H39.7957V11.1519H3.15372V4.77953ZM3.15372 41.4215V12.7451H39.7957V31.4333C35.5989 30.1137 31.127 32.4463 29.8074 36.6431C29.3187 38.1983 29.3187 39.8664 29.8074 41.4215H3.15372ZM37.4061 45.4043C33.8867 45.4043 31.0334 42.5514 31.0334 39.032C31.0334 35.5125 33.8867 32.6592 37.4061 32.6592C40.9256 32.6592 43.7785 35.5125 43.7785 39.032C43.7746 42.5496 40.9238 45.4004 37.4061 45.4043Z" fill="#2D76EF"/>
<path d="M40.0943 36.0198L36.6692 38.7615L34.7837 36.8754C34.4725 36.5645 33.968 36.5645 33.6571 36.8758C33.3458 37.187 33.3462 37.6915 33.6574 38.0024L36.047 40.3924C36.3339 40.6796 36.7911 40.7047 37.1081 40.4512L41.0908 37.2648C41.4347 36.9902 41.4907 36.4885 41.2156 36.1446C40.9406 35.8008 40.4389 35.7448 40.0951 36.0198H40.0943Z" fill="#2D76EF"/>
</g>
<defs>
<clipPath id="clip0">
<rect width="47" height="47" fill="white"/>
</clipPath>
</defs>
</svg>
