<svg width="45" height="45" viewBox="0 0 45 45" fill="none" xmlns="http://www.w3.org/2000/svg">
<g clip-path="url(#clip0)">
<path d="M42.1881 0H2.81345C1.26018 0 0.000976562 1.2592 0.000976562 2.81248V34.6873C0.000976562 36.2405 1.26018 37.4997 2.81345 37.4997H25.3133V35.6248H2.81345C2.29569 35.6248 1.87593 35.205 1.87593 34.6873V2.81248C1.87593 2.29472 2.29569 1.87496 2.81345 1.87496H42.1881C42.7059 1.87496 43.1257 2.29472 43.1257 2.81248V34.6873C43.1257 35.205 42.7059 35.6248 42.1881 35.6248H40.3132V37.4997H42.1881C43.7414 37.4997 45.0006 36.2405 45.0006 34.6873V2.81248C45.0006 1.2592 43.7414 0 42.1881 0Z" fill="#2D76EF"/>
<path d="M39.375 9.37496C37.304 9.37496 35.625 7.696 35.625 5.62496C35.625 5.1072 35.2052 4.68744 34.6875 4.68744H10.3128C9.79503 4.68744 9.37527 5.1072 9.37527 5.62496C9.37527 7.696 7.6963 9.37496 5.62527 9.37496C5.10751 9.37496 4.68774 9.79472 4.68774 10.3125V27.1874C4.68774 27.7051 5.10751 28.1249 5.62527 28.1249C7.6963 28.1249 9.37527 29.8038 9.37527 31.8749C9.37527 32.3926 9.79503 32.8124 10.3128 32.8124H22.5002V30.9373H11.1724C10.7692 28.5785 8.92158 26.7309 6.56279 26.3276V11.1721C8.92158 10.7689 10.7692 8.92127 11.1724 6.56248H33.8279C34.2312 8.92127 36.0788 10.7689 38.4376 11.1721V18.7499H40.3125V10.3125C40.3125 9.79464 39.8928 9.37496 39.375 9.37496Z" fill="#2D76EF"/>
<path d="M32.8124 19.6873C28.1526 19.6873 24.375 23.4649 24.375 28.1248C24.375 32.7846 28.1526 36.5622 32.8124 36.5622C37.47 36.5565 41.2442 32.7823 41.2499 28.1248C41.2499 23.4649 37.4723 19.6873 32.8124 19.6873ZM32.8124 34.6872C29.1881 34.6872 26.25 31.7492 26.25 28.1248C26.25 24.5004 29.188 21.5623 32.8124 21.5623C36.4351 21.5664 39.3708 24.5021 39.3749 28.1248C39.3748 31.7491 36.4368 34.6872 32.8124 34.6872Z" fill="#2D76EF"/>
<path d="M36.5624 33.7498V42.1113L33.3983 39.58C33.0558 39.3058 32.569 39.3058 32.2265 39.58L29.0625 42.1113V33.7498H27.1875V44.0622C27.1874 44.2753 27.2599 44.4821 27.3932 44.6485C27.7168 45.0527 28.3068 45.118 28.7109 44.7944L32.8125 41.5132L36.914 44.7944C37.0803 44.9273 37.287 44.9998 37.5 44.9997C38.0177 44.9997 38.4375 44.5799 38.4375 44.0622V33.7498H36.5624Z" fill="#2D76EF"/>
<path d="M31.8751 9.37494H13.1253C12.6075 9.37494 12.1877 9.7947 12.1877 10.3125V14.0624C12.1877 14.5801 12.6075 14.9999 13.1253 14.9999H31.8751C32.3928 14.9999 32.8126 14.5801 32.8126 14.0624V10.3124C32.8126 9.79461 32.3928 9.37494 31.8751 9.37494ZM30.9376 13.1248H14.0627V11.2499H30.9376V13.1248Z" fill="#2D76EF"/>
<path d="M13.1252 17.8124H11.2502V19.6873H13.1252V17.8124Z" fill="#2D76EF"/>
<path d="M16.8752 17.8124H15.0002V19.6873H16.8752V17.8124Z" fill="#2D76EF"/>
<path d="M22.5002 21.5623H11.2502V23.4372H22.5002V21.5623Z" fill="#2D76EF"/>
<path d="M32.8124 23.4373C30.2236 23.4373 28.125 25.536 28.125 28.1248C28.125 30.7136 30.2236 32.8122 32.8124 32.8122C35.4 32.8091 37.4968 30.7122 37.4999 28.1248C37.4999 25.536 35.4012 23.4373 32.8124 23.4373ZM32.8124 30.9372C31.2592 30.9372 30 29.678 30 28.1248C30 26.5715 31.2592 25.3123 32.8124 25.3123C34.3657 25.3123 35.6249 26.5715 35.6249 28.1248C35.6249 29.678 34.3657 30.9372 32.8124 30.9372Z" fill="#2D76EF"/>
<path d="M6.5627 30.9373H4.68774V32.8122H6.5627V30.9373Z" fill="#2D76EF"/>
<path d="M40.3125 4.68744H38.4375V6.56239H40.3125V4.68744Z" fill="#2D76EF"/>
<path d="M6.5627 4.68744H4.68774V6.56239H6.5627V4.68744Z" fill="#2D76EF"/>
</g>
<defs>
<clipPath id="clip0">
<rect width="45" height="45" fill="white"/>
</clipPath>
</defs>
</svg>
