<svg width="84" height="82" viewBox="0 0 84 82" fill="none" xmlns="http://www.w3.org/2000/svg">
<path d="M83.8381 44.8801C83.0839 37.2941 79.6948 30.1423 74.2947 24.7421C69.6799 20.1274 64.0315 17.162 58.0881 15.8434V11.6748C60.5156 11.0709 62.32 8.87356 62.32 6.26181C62.32 3.18591 59.8176 0.683594 56.7417 0.683594H44.9291C41.8532 0.683594 39.3508 3.18591 39.3508 6.26181C39.3508 8.87339 41.1552 11.0707 43.5826 11.6748V15.855C37.6574 17.1792 32.0276 20.1406 27.4259 24.7423C26.4189 25.7493 25.4903 26.8057 24.6403 27.9036C24.5991 27.9005 24.5579 27.8974 24.5159 27.8974H12.8245C11.9185 27.8974 11.1838 28.6319 11.1838 29.538C11.1838 30.4442 11.9185 31.1787 12.8245 31.1787H22.4078C21.2049 33.1926 20.235 35.3076 19.4967 37.4847H1.64065C0.734683 37.4847 0 38.2192 0 39.1254C0 40.0315 0.734683 40.766 1.64065 40.766H18.5695C18.0967 42.8416 17.8253 44.9539 17.7553 47.0722H10.5002C9.5942 47.0722 8.85951 47.8067 8.85951 48.7128C8.85951 49.619 9.5942 50.3535 10.5002 50.3535H17.8076C17.9461 52.4771 18.2875 54.5896 18.832 56.6596H8.20325C7.29729 56.6596 6.5626 57.3942 6.5626 58.3003C6.5626 59.2064 7.29729 59.9409 8.20325 59.9409H19.8791C21.4886 64.1986 24.0039 68.1892 27.4259 71.6112C32.8312 77.0165 39.9904 80.4064 47.5843 81.1567C48.6681 81.2637 49.7527 81.3167 50.8359 81.3167C57.238 81.3167 63.5588 79.4639 68.9221 75.9713C69.6814 75.4768 69.8961 74.4604 69.4017 73.7011C68.9072 72.9418 67.8908 72.727 67.1315 73.2215C55.3915 80.8665 39.6686 79.2135 29.7461 69.291C18.1038 57.6486 18.1038 38.7052 29.7461 27.0626C41.3884 15.4204 60.3318 15.4204 71.9744 27.0626C81.8837 36.9722 83.5457 52.6816 75.926 64.4158C75.4325 65.1758 75.6486 66.192 76.4084 66.6853C77.1687 67.1788 78.1845 66.9628 78.6779 66.2028C82.749 59.9331 84.5816 52.3606 83.8381 44.8801ZM42.6321 6.26197C42.6321 4.99539 43.6625 3.96506 44.9291 3.96506H56.7417C58.0083 3.96506 59.0387 4.99539 59.0387 6.26197C59.0387 7.52855 58.0083 8.55888 56.7417 8.55888H56.4474H45.2232H44.9291C43.6625 8.55888 42.6321 7.52839 42.6321 6.26197ZM46.8639 15.291V11.8402H54.8068V15.2851C52.1692 14.9714 49.5009 14.9733 46.8639 15.291Z" fill="#2D76EF"/>
<path d="M73.1353 68.8097C72.7021 68.8097 72.2805 68.9852 71.9755 69.2904C71.6687 69.5956 71.4946 70.0188 71.4946 70.4503C71.4946 70.8818 71.6687 71.3051 71.9755 71.6103C72.2805 71.9171 72.7023 72.091 73.1353 72.091C73.5667 72.091 73.9884 71.9171 74.2952 71.6103C74.6003 71.3051 74.7759 70.8818 74.7759 70.4503C74.7759 70.0188 74.6005 69.5956 74.2952 69.2904C73.9884 68.9852 73.5666 68.8097 73.1353 68.8097Z" fill="#2D76EF"/>
<path d="M50.8604 22.7252C36.8266 22.7252 25.4092 34.1425 25.4092 48.1765C25.4092 62.2104 36.8266 73.6277 50.8604 73.6277C64.8942 73.6277 76.3117 62.2104 76.3117 48.1765C76.3117 34.1425 64.8942 22.7252 50.8604 22.7252ZM50.8604 70.3464C38.6358 70.3464 28.6905 60.401 28.6905 48.1765C28.6905 35.952 38.6358 26.0065 50.8604 26.0065C63.0851 26.0065 73.0304 35.952 73.0304 48.1765C73.0304 60.401 63.0851 70.3464 50.8604 70.3464Z" fill="#2D76EF"/>
<path d="M61.2384 35.4781L53.1123 43.604C52.4327 43.268 51.6683 43.0782 50.8603 43.0782C50.0521 43.0782 49.2879 43.268 48.6084 43.604L44.9715 39.9672C44.3307 39.3265 43.2922 39.3265 42.6512 39.9672C42.0105 40.6079 42.0105 41.6468 42.6512 42.2874L46.288 45.9243C45.9518 46.6038 45.7622 47.3682 45.7622 48.1762C45.7622 50.9873 48.0491 53.2744 50.8603 53.2744C53.6716 53.2744 55.9585 50.9873 55.9585 48.1762C55.9585 47.3682 55.7687 46.6038 55.4326 45.9243L63.3202 38.0367L63.5586 37.7983C64.1993 37.1576 64.1993 36.1187 63.5586 35.4781C62.918 34.8374 61.8794 34.8374 61.2384 35.4781ZM50.8603 49.9932C49.8585 49.9932 49.0435 49.1782 49.0435 48.1764C49.0435 47.1746 49.8585 46.3595 50.8603 46.3595C51.8621 46.3595 52.6772 47.1746 52.6772 48.1764C52.6772 49.1782 51.8621 49.9932 50.8603 49.9932Z" fill="#2D76EF"/>
<path d="M68.4019 46.5559H66.8818C65.9759 46.5559 65.2412 47.2904 65.2412 48.1965C65.2412 49.1027 65.9759 49.8372 66.8818 49.8372H68.4019C69.3078 49.8372 70.0425 49.1027 70.0425 48.1965C70.0425 47.2904 69.3078 46.5559 68.4019 46.5559Z" fill="#2D76EF"/>
<path d="M34.8385 46.5159H33.3186C32.4127 46.5159 31.678 47.2504 31.678 48.1565C31.678 49.0626 32.4127 49.7971 33.3186 49.7971H34.8385C35.7444 49.7971 36.4791 49.0626 36.4791 48.1565C36.4791 47.2504 35.7444 46.5159 34.8385 46.5159Z" fill="#2D76EF"/>
<path d="M50.8802 33.7953C51.7862 33.7953 52.5209 33.0608 52.5209 32.1546V30.6348C52.5209 29.7286 51.7862 28.9941 50.8802 28.9941C49.9743 28.9941 49.2396 29.7286 49.2396 30.6348V32.1546C49.2396 33.0608 49.9743 33.7953 50.8802 33.7953Z" fill="#2D76EF"/>
<path d="M50.8403 62.5576C49.9344 62.5576 49.1997 63.2921 49.1997 64.1983V65.7181C49.1997 66.6243 49.9344 67.3588 50.8403 67.3588C51.7463 67.3588 52.481 66.6243 52.481 65.7181V64.1983C52.481 63.2921 51.7463 62.5576 50.8403 62.5576Z" fill="#2D76EF"/>
<path d="M1.64062 56.6591C1.20914 56.6591 0.785859 56.8346 0.480703 57.1398C0.175547 57.4449 0 57.8682 0 58.2997C0 58.7328 0.175383 59.1544 0.480703 59.4596C0.786023 59.7648 1.20914 59.9403 1.64062 59.9403C2.07211 59.9403 2.49539 59.7648 2.80038 59.4596C3.10554 59.1544 3.28125 58.7312 3.28125 58.2997C3.28125 57.8682 3.1057 57.4449 2.80038 57.1398C2.49539 56.8346 2.07211 56.6591 1.64062 56.6591Z" fill="#2D76EF"/>
</svg>
