<svg width="14" height="14" viewBox="0 0 14 14" fill="none" xmlns="http://www.w3.org/2000/svg">
<path fill-rule="evenodd" clip-rule="evenodd" d="M13.2258 10.6536C13.2258 10.375 13.1145 10.0964 12.9141 9.8958L9.64103 6.61949L12.9141 3.34318C13.1145 3.14259 13.2258 2.86399 13.2258 2.58539C13.2258 2.30679 13.1145 2.02819 12.9141 1.8276L11.4 0.31203C11.1996 0.111439 10.9213 0 10.643 0C10.3647 0 10.0863 0.111439 9.88595 0.31203L6.6129 3.58834L3.33985 0.31203C3.13946 0.111439 2.86114 0 2.58282 0C2.3045 0 2.02617 0.111439 1.82578 0.31203L0.311719 1.8276C0.111328 2.02819 0 2.30679 0 2.58539C0 2.86399 0.111328 3.14259 0.311719 3.34318L3.58477 6.61949L0.311719 9.8958C0.111328 10.0964 0 10.375 0 10.6536C0 10.9322 0.111328 11.2108 0.311719 11.4114L1.82578 12.9269C2.02617 13.1275 2.3045 13.239 2.58282 13.239C2.86114 13.239 3.13946 13.1275 3.33985 12.9269L6.6129 9.65063L9.88595 12.9269C10.0863 13.1275 10.3647 13.239 10.643 13.239C10.9213 13.239 11.1996 13.1275 11.4 12.9269L12.9141 11.4114C13.1145 11.2108 13.2258 10.9322 13.2258 10.6536Z" fill="#505050"/>
</svg>
