<svg width="47" height="47" viewBox="0 0 47 47" fill="none" xmlns="http://www.w3.org/2000/svg">
<g clip-path="url(#clip0)">
<path d="M47 6.93215H46.9997C46.9997 3.54441 44.556 0.718457 41.3392 0.119761C41.3012 0.110673 41.2626 0.103146 41.223 0.0989233C40.8473 0.0356756 40.462 0.000976562 40.0686 0.000976562H6.93117C6.53773 0.000976562 6.15247 0.0356756 5.77674 0.0989233C5.73709 0.103146 5.69853 0.110673 5.66053 0.119761C2.44371 0.718457 0 3.54441 0 6.93215V29.7882C0 33.1758 2.44343 36.0017 5.65998 36.6006C5.69872 36.6099 5.73801 36.6176 5.77849 36.6218C6.15366 36.6849 6.53838 36.7195 6.93117 36.7195H32.3626V39.1856L31.5205 38.5066C30.4508 37.6441 28.9114 37.7263 27.9399 38.6979C26.9503 39.6875 26.8814 41.2431 27.7795 42.3163L31.4247 46.6719C31.6063 46.8888 31.8668 47.0007 32.1292 47.0007C32.337 47.0007 32.546 46.9305 32.7179 46.7867C33.1066 46.4613 33.158 45.8823 32.8327 45.4936L29.1875 41.138C28.904 40.7994 28.9258 40.3085 29.2381 39.9962C29.5447 39.6896 30.0305 39.6635 30.3682 39.9358L32.7045 41.8197C32.9797 42.0416 33.3579 42.0856 33.6768 41.9333C33.9957 41.7808 34.1987 41.4586 34.1987 41.1052V28.9855C34.1987 28.6164 34.4988 28.3103 34.8676 28.3033C35.0987 28.2966 35.2623 28.4238 35.3384 28.4984C35.4812 28.6386 35.5631 28.8314 35.5631 29.0274V34.9772V36.0062V38.0395C35.5631 38.5464 35.9741 38.9575 36.4811 38.9575C36.988 38.9575 37.399 38.5464 37.399 38.0395V36.0062V34.9772C37.399 34.601 37.7051 34.295 38.0813 34.295C38.4574 34.295 38.7635 34.601 38.7635 34.9772V38.0395C38.7635 38.5464 39.1745 38.9575 39.6814 38.9575C40.1884 38.9575 40.5994 38.5464 40.5994 38.0395V34.9772C40.5994 34.601 40.9055 34.295 41.2816 34.295C41.6578 34.295 41.9639 34.601 41.9639 34.9772V38.2258C41.9639 38.7327 42.3748 39.1438 42.8818 39.1438C43.3888 39.1438 43.7998 38.7327 43.7998 38.2258V34.9772C43.7998 34.6081 44.0999 34.3021 44.4686 34.2951C44.6993 34.2894 44.8633 34.4153 44.9394 34.4901C45.0822 34.6302 45.1641 34.823 45.1641 35.0191V46.0826C45.1641 46.5895 45.575 47.0006 46.082 47.0006C46.589 47.0006 47 46.5895 47 46.0826V35.0192C47 34.3334 46.7176 33.6631 46.2253 33.1798C46.2015 33.1564 46.177 33.1339 46.1524 33.1116C46.7086 32.0986 47 30.9671 47 29.7882V6.93215ZM4.957 34.4855C3.12511 33.7125 1.83593 31.8982 1.83593 29.7882V6.93215C1.83593 4.8223 3.12511 3.00795 4.957 2.23512V34.4855ZM40.2068 32.7006C40.0175 32.7903 39.841 32.9025 39.6812 33.0344C39.2458 32.6752 38.6881 32.4592 38.081 32.4592C37.8445 32.4592 37.6159 32.4927 37.3987 32.5539V29.0275C37.3987 28.3418 37.1164 27.6715 36.6242 27.1883C36.1381 26.7112 35.5021 26.457 34.8329 26.4679C33.4708 26.4934 32.3626 27.6229 32.3626 28.9856V34.8836H28.3651V22.7756H40.2068V32.7006ZM40.2068 20.9396H27.4471C26.9401 20.9396 26.5291 21.3506 26.5291 21.8576V34.8836H6.93117C6.88482 34.8836 6.83901 34.8813 6.79293 34.8801V1.84039C6.83901 1.8392 6.88482 1.8369 6.93117 1.8369H40.0686C40.1149 1.8369 40.1607 1.8392 40.2068 1.84039V20.9396ZM45.1638 29.7882C45.1638 30.7453 44.9029 31.6597 44.4068 32.4609C43.8311 32.4779 43.3022 32.6919 42.8846 33.0371C42.6388 32.8336 42.3536 32.6761 42.0427 32.5772V20.7917C42.4282 20.9972 42.8677 21.1141 43.3341 21.1141C44.036 21.1141 44.6769 20.8499 45.1638 20.416V29.7882ZM42.4161 18.3602C42.4161 17.8541 42.8279 17.4423 43.3341 17.4423C43.8403 17.4423 44.2521 17.8541 44.2521 18.3602C44.2521 18.8664 43.8403 19.2782 43.3341 19.2782C42.8279 19.2782 42.4161 18.8664 42.4161 18.3602ZM45.1638 16.3045C44.6769 15.8707 44.0359 15.6064 43.3341 15.6064C42.8677 15.6064 42.4282 15.7233 42.0427 15.9288V2.23512C43.8746 3.00795 45.1638 4.82221 45.1638 6.93215V16.3045Z" fill="#2D76EF"/>
<path d="M14.8711 19.5529H10.2812C9.77425 19.5529 9.36328 19.9638 9.36328 20.4708V25.0606C9.36328 25.5675 9.77425 25.9786 10.2812 25.9786H14.8711C15.3781 25.9786 15.789 25.5675 15.789 25.0606V20.4708C15.789 19.9638 15.3781 19.5529 14.8711 19.5529ZM13.9531 24.1427H11.1992V21.3888H13.9531V24.1427Z" fill="#2D76EF"/>
<path d="M22.8266 19.5529H18.2368C17.7298 19.5529 17.3188 19.9638 17.3188 20.4708V25.0606C17.3188 25.5675 17.7298 25.9786 18.2368 25.9786H22.8266C23.3336 25.9786 23.7446 25.5675 23.7446 25.0606V20.4708C23.7446 19.9638 23.3335 19.5529 22.8266 19.5529ZM21.9087 24.1427H19.1548V21.3888H21.9087V24.1427Z" fill="#2D76EF"/>
<path d="M14.8711 27.2025H10.2812C9.77425 27.2025 9.36328 27.6136 9.36328 28.1205V32.7103C9.36328 33.2172 9.77425 33.6283 10.2812 33.6283H14.8711C15.3781 33.6283 15.789 33.2172 15.789 32.7103V28.1205C15.789 27.6136 15.3781 27.2025 14.8711 27.2025ZM13.9531 31.7923H11.1992V29.0384H13.9531V31.7923Z" fill="#2D76EF"/>
<path d="M22.8266 27.2025H18.2368C17.7298 27.2025 17.3188 27.6136 17.3188 28.1205V32.7103C17.3188 33.2172 17.7298 33.6283 18.2368 33.6283H22.8266C23.3336 33.6283 23.7446 33.2172 23.7446 32.7103V28.1205C23.7446 27.6136 23.3335 27.2025 22.8266 27.2025ZM21.9087 31.7923H19.1548V29.0384H21.9087V31.7923Z" fill="#2D76EF"/>
<path d="M15.1464 3.36603C11.1477 3.36603 7.89453 6.6192 7.89453 10.6179C7.89453 13.2886 9.35584 15.7357 11.7083 17.0044C11.8469 17.0791 11.9961 17.1146 12.1432 17.1146C12.4698 17.1146 12.7861 16.9399 12.9521 16.6323C13.1927 16.186 13.026 15.6292 12.5798 15.3885C10.8223 14.4407 9.73046 12.6127 9.73046 10.618C9.73046 7.63162 12.16 5.20205 15.1464 5.20205C18.1329 5.20205 20.5624 7.63162 20.5624 10.618C20.5624 12.6126 19.4707 14.4405 17.7134 15.3884C17.2672 15.6291 17.1006 16.1859 17.3413 16.6322C17.582 17.0784 18.1389 17.245 18.585 17.0042C20.9372 15.7354 22.3984 13.2883 22.3984 10.6179C22.3984 6.6192 19.1452 3.36603 15.1464 3.36603Z" fill="#2D76EF"/>
<path d="M38.8013 8.53605C38.6562 8.05027 38.1449 7.77424 37.6589 7.91937C37.1731 8.06459 36.8971 8.57599 37.0422 9.06177C37.6137 10.9741 37.0929 13.0378 35.6831 14.4476C33.5714 16.5594 30.1354 16.5593 28.0238 14.4476C25.9121 12.336 25.9121 8.89993 28.0238 6.78834C29.4339 5.37817 31.498 4.8575 33.4109 5.42939C33.8967 5.57489 34.408 5.29867 34.5534 4.81289C34.6986 4.32719 34.4226 3.8157 33.9369 3.67039C31.3768 2.9049 28.6136 3.60209 26.7256 5.49007C23.8981 8.31758 23.8981 12.9182 26.7256 15.7458C28.1393 17.1596 29.9963 17.8665 31.8534 17.8665C33.7104 17.8665 35.5674 17.1596 36.9813 15.7458C38.8688 13.8583 39.5662 11.0956 38.8013 8.53605Z" fill="#2D76EF"/>
<path d="M17.907 7.8574C17.5485 7.49903 16.9672 7.49903 16.6087 7.8574L14.4974 9.96872C14.1389 10.3272 14.1389 10.9084 14.4974 11.267C14.6766 11.4462 14.9115 11.5359 15.1465 11.5359C15.3814 11.5359 15.6165 11.4462 15.7956 11.267L17.907 9.15568C18.2654 8.79731 18.2654 8.21605 17.907 7.8574Z" fill="#2D76EF"/>
<path d="M34.6139 7.8574C34.2554 7.49903 33.6742 7.49903 33.3157 7.8574L31.2044 9.96872C30.8459 10.3272 30.8459 10.9084 31.2044 11.267C31.3837 11.4462 31.6186 11.5359 31.8535 11.5359C32.0884 11.5359 32.3234 11.4462 32.5026 11.267L34.6139 9.15568C34.9724 8.79731 34.9724 8.21605 34.6139 7.8574Z" fill="#2D76EF"/>
<path d="M36.981 5.49058C36.8103 5.31892 36.5735 5.22162 36.332 5.22162C36.0906 5.22162 35.8538 5.31892 35.683 5.49058C35.5123 5.66132 35.4141 5.89816 35.4141 6.13958C35.4141 6.381 35.5123 6.61692 35.683 6.78858C35.8538 6.95932 36.0906 7.05754 36.332 7.05754C36.5735 7.05754 36.8103 6.95932 36.981 6.78858C37.1518 6.61692 37.25 6.381 37.25 6.13958C37.25 5.89724 37.1518 5.66132 36.981 5.49058Z" fill="#2D76EF"/>
<path d="M15.7955 16.5447C15.6247 16.3739 15.3879 16.2757 15.1465 16.2757C14.9051 16.2757 14.6682 16.3739 14.4975 16.5447C14.3267 16.7154 14.2285 16.9522 14.2285 17.1937C14.2285 17.4351 14.3267 17.6719 14.4975 17.8427C14.6682 18.0134 14.9051 18.1116 15.1465 18.1116C15.3879 18.1116 15.6247 18.0134 15.7955 17.8427C15.9662 17.6719 16.0644 17.4351 16.0644 17.1937C16.0644 16.9522 15.9662 16.7153 15.7955 16.5447Z" fill="#2D76EF"/>
</g>
<defs>
<clipPath id="clip0">
<rect width="47" height="47" fill="white"/>
</clipPath>
</defs>
</svg>
