<svg width="47" height="47" viewBox="0 0 47 47" fill="none" xmlns="http://www.w3.org/2000/svg">
<g clip-path="url(#clip0)">
<path d="M35.9595 12.1866C35.9595 13.6104 34.9229 14.4764 34.166 15.1118C33.8794 15.3525 33.3458 15.7917 33.3472 15.9558C33.3524 16.5993 32.835 17.1132 32.1914 17.1132C32.1881 17.1132 32.1849 17.1132 32.1817 17.1132C31.5426 17.1132 31.0218 16.6151 31.0166 15.9748C31.0064 14.7128 31.9274 13.957 32.6675 13.3357C33.2482 12.8481 33.629 12.5049 33.629 12.191C33.629 11.5554 33.1118 11.0382 32.4762 11.0382C31.8404 11.0382 31.3231 11.5554 31.3231 12.191C31.3231 12.8346 30.8014 13.3563 30.1578 13.3563C29.5142 13.3563 28.9925 12.8346 28.9925 12.191C28.9925 10.2703 30.5552 8.70766 32.476 8.70766C34.3969 8.70753 35.9595 10.2658 35.9595 12.1866ZM32.2139 18.1888C31.5703 18.1888 31.0744 18.7105 31.0744 19.3541V19.3631C31.0744 20.0067 31.5704 20.524 32.2139 20.524C32.8574 20.524 33.3792 19.9978 33.3792 19.3541C33.3792 18.7105 32.8575 18.1888 32.2139 18.1888ZM8.72569 26.3061C8.08206 26.3061 7.5604 26.8278 7.5604 27.4714C7.5604 28.115 8.08206 28.6367 8.72569 28.6367H8.82279C9.46642 28.6367 9.98808 28.115 9.98808 27.4714C9.98808 26.8278 9.46642 26.3061 8.82279 26.3061H8.72569ZM12.7756 26.3061C12.132 26.3061 11.6103 26.8278 11.6103 27.4714C11.6103 28.115 12.132 28.6367 12.7756 28.6367H12.8726C13.5162 28.6367 14.0379 28.115 14.0379 27.4714C14.0379 26.8278 13.5162 26.3061 12.8726 26.3061H12.7756ZM47 7.69399V20.8101C47 23.9156 44.5099 26.4356 41.4044 26.4356H26.2923C25.9968 26.4356 25.7535 26.4339 25.55 26.4296C25.3368 26.4252 25.0967 26.4236 25.0031 26.4339C24.9056 26.4986 24.6666 26.7176 24.4362 26.9298C24.345 27.0138 24.2416 27.1063 24.1302 27.2081L19.8546 31.105C19.5135 31.4162 19.009 31.4967 18.5866 31.3105C18.1643 31.1242 17.8678 30.706 17.8678 30.2444V17.8901H5.66072C3.84002 17.8901 2.33058 19.3821 2.33058 21.2025V34.3186C2.33058 36.1392 3.84015 37.5706 5.66072 37.5706H22.5411C22.8318 37.5706 23.1037 37.7041 23.3183 37.9001L26.8017 41.1116V30.0363C26.8017 29.3927 27.3233 28.871 27.9669 28.871C28.6106 28.871 29.1322 29.3927 29.1322 30.0363V43.7528C29.1322 44.2144 28.8681 44.6264 28.4456 44.8127C28.2945 44.8794 28.1428 44.9057 27.9839 44.9057C27.6985 44.9057 27.4171 44.7885 27.1981 44.5886L22.0894 39.901H5.66072C2.55509 39.901 0 37.4241 0 34.3185V21.2025C0 18.097 2.55509 15.5596 5.66072 15.5596H17.8678V7.69399C17.8678 4.58836 20.4424 2.09399 23.548 2.09399H41.4045C44.5099 2.09399 47 4.58836 47 7.69399ZM44.6694 7.69399C44.6694 5.87342 43.2248 4.42457 41.4044 4.42457H23.548C21.7275 4.42457 20.1983 5.87342 20.1983 7.69399V16.7357V27.6032L22.5412 25.4859C22.6497 25.3868 22.7713 25.2962 22.86 25.2144C23.9299 24.2285 24.2036 24.071 25.5991 24.0997C25.7894 24.1037 26.0161 24.1051 26.2923 24.1051H41.4044C43.2248 24.1051 44.6694 22.6307 44.6694 20.8102V7.69399Z" fill="white" stroke="#2D76EF" stroke-width="0.25"/>
</g>
<defs>
<clipPath id="clip0">
<rect width="47" height="47" fill="white"/>
</clipPath>
</defs>
</svg>
