<svg width="47" height="47" viewBox="0 0 47 47" fill="none" xmlns="http://www.w3.org/2000/svg">
<g clip-path="url(#clip0)">
<path d="M45.0651 19.6364L44.4605 19.1842C43.7075 18.6205 43.4404 17.623 43.8104 16.7584L44.1081 16.0646C44.7126 14.6529 44.619 13.0805 43.8513 11.7509C43.0832 10.4209 41.7687 9.55352 40.2436 9.37172L39.4942 9.28207C38.5601 9.17055 37.8297 8.44013 37.7182 7.50639L37.6289 6.7566C37.4467 5.23192 36.5793 3.91702 35.2497 3.1493C33.9198 2.38122 32.3474 2.28763 30.936 2.89256L30.2418 3.18982C29.3773 3.56023 28.3797 3.29273 27.816 2.53971L27.3639 1.93551C26.4437 0.705943 25.0356 0.000976562 23.4998 0.000976562C21.964 0.000976562 20.5559 0.705943 19.6358 1.93551L19.1832 2.53971C18.6196 3.29309 17.6224 3.56023 16.7575 3.18982L16.0636 2.89256C14.6519 2.28799 13.0795 2.38122 11.7499 3.1493C10.4199 3.91702 9.55254 5.23192 9.37074 6.7566L9.28109 7.50603C9.16957 8.44013 8.43915 9.17055 7.50505 9.28207L6.75562 9.37172C5.23095 9.55352 3.91604 10.4209 3.14832 11.7509C2.38025 13.0805 2.28701 14.6529 2.89158 16.0646L3.18884 16.7584C3.55925 17.623 3.29175 18.6205 2.53874 19.1842L1.93453 19.6364C0.705324 20.5565 0 21.965 0 23.5004C0 25.0362 0.705324 26.4447 1.93453 27.3648L2.5391 27.817C3.29211 28.3807 3.55925 29.3783 3.1892 30.2428L2.89158 30.9366C2.28701 32.3484 2.3806 33.9207 3.14832 35.2504C3.9164 36.5803 5.23095 37.4477 6.75598 37.6295L7.50541 37.7192C8.43951 37.8307 9.16993 38.5611 9.28145 39.4949L9.37074 40.2446C9.5529 41.7693 10.4203 43.0842 11.7499 43.8519C13.0799 44.6197 14.6522 44.7132 16.0636 44.1087L16.7578 43.8114C17.6224 43.441 18.6199 43.7085 19.1836 44.4615L19.6358 45.0657C20.5559 46.2953 21.9644 47.0006 23.5002 47.0006C25.0356 47.0006 26.4441 46.2953 27.3642 45.0657L27.8164 44.4615C28.3801 43.7085 29.3773 43.441 30.2425 43.8118L30.9364 44.1087C32.3477 44.7132 33.9201 44.62 35.2501 43.8523C36.5797 43.0842 37.4471 41.7693 37.6292 40.2446L37.7185 39.4952C37.8301 38.5611 38.5605 37.8307 39.4946 37.7192L40.244 37.6299C41.7687 37.4477 43.084 36.5803 43.8517 35.2507C44.6194 33.9207 44.713 32.3484 44.1081 30.9366L43.8111 30.2432C43.4407 29.3783 43.7079 28.3807 44.4613 27.817L45.0655 27.3648C46.295 26.4447 47 25.0362 47 23.5008C46.9996 21.965 46.2943 20.5565 45.0651 19.6364ZM43.965 25.895L43.3608 26.3472C41.9268 27.4201 41.4176 29.3195 42.1233 30.9661L42.4202 31.6595C42.7949 32.5341 42.7368 33.5084 42.2614 34.3324C41.7855 35.1568 40.9708 35.6939 40.026 35.8069L39.2766 35.8962C37.498 36.1084 36.1078 37.499 35.8955 39.2775L35.8059 40.027C35.6929 40.9718 35.1558 41.7865 34.3318 42.2624C33.5077 42.7378 32.5335 42.7959 31.6589 42.4212L30.9651 42.124C29.3185 41.4186 27.4194 41.9278 26.3462 43.3618L25.894 43.966C25.3239 44.7276 24.4511 45.1647 23.4998 45.1647C22.5481 45.1647 21.6754 44.7276 21.1052 43.966L20.6531 43.3618C19.9033 42.3595 18.7501 41.8091 17.5618 41.8091C17.0493 41.8091 16.5305 41.9117 16.0346 42.124L15.3407 42.4212C14.4658 42.7959 13.4919 42.7378 12.6675 42.2624C11.8435 41.7865 11.3063 40.9718 11.1934 40.027L11.1041 39.2775C10.8915 37.499 9.50126 36.1088 7.72271 35.8965L6.97328 35.8069C6.02843 35.6939 5.21373 35.1568 4.7379 34.3327C4.26243 33.5087 4.20434 32.5345 4.57905 31.6599L4.87631 30.9661C5.58164 29.3198 5.07245 27.4204 3.63886 26.3472L3.03429 25.895C2.27267 25.3249 1.83592 24.4521 1.83592 23.5004C1.83592 22.5491 2.27267 21.6763 3.03465 21.1062L3.63886 20.654C5.07281 19.5808 5.582 17.6814 4.87631 16.0352L4.57941 15.3413C4.20469 14.4668 4.26278 13.4925 4.73826 12.6685C5.21409 11.8445 6.02878 11.3073 6.97364 11.1944L7.72307 11.1047C9.50162 10.8925 10.8918 9.50224 11.1041 7.72369L11.1938 6.97426C11.3067 6.0294 11.8439 5.21471 12.6679 4.73888C13.4919 4.26304 14.4661 4.20531 15.3407 4.58003L16.0346 4.87693C17.6808 5.58226 19.5802 5.07343 20.6534 3.63948L21.1056 3.03527C21.6757 2.27365 22.5485 1.83654 23.4998 1.83654C24.4511 1.83654 25.3239 2.27365 25.894 3.03527L26.3466 3.63983C27.4194 5.07379 29.3192 5.58261 30.9651 4.87729L31.6589 4.58003C32.5335 4.20531 33.5077 4.2634 34.3318 4.73888C35.1558 5.21471 35.6933 6.0294 35.8059 6.97426L35.8955 7.72369C36.1078 9.50224 37.4984 10.8925 39.2766 11.1047L40.026 11.1944C40.9708 11.3073 41.7855 11.8445 42.2614 12.6685C42.7372 13.4925 42.7949 14.4668 42.4206 15.3413L42.1233 16.0352C41.418 17.6818 41.9268 19.5808 43.3608 20.654L43.965 21.1062C44.727 21.6763 45.1637 22.5491 45.1637 23.5008C45.1637 24.4521 44.727 25.3249 43.965 25.895Z" fill="#2D76EF"/>
<path d="M23.5 5.33545C20.7307 5.33545 18.0714 5.94288 15.5965 7.14089C15.1401 7.36178 14.9493 7.91076 15.1698 8.36687C15.3907 8.82334 15.9401 9.01411 16.3962 8.79322C18.6197 7.71713 21.0096 7.17137 23.5 7.17137C32.5035 7.17137 39.8286 14.4964 39.8286 23.5003C39.8286 32.5039 32.5035 39.8289 23.5 39.8289C14.4961 39.8289 7.17101 32.5039 7.17101 23.5003C7.17101 19.8123 8.37046 16.3327 10.6399 13.4372C10.9526 13.0381 10.8827 12.4611 10.4836 12.1481C10.0845 11.8354 9.50751 11.9057 9.19483 12.3044C6.67008 15.5266 5.33545 19.3978 5.33545 23.5003C5.33545 33.5162 13.4842 41.6649 23.5 41.6649C33.5158 41.6649 41.6645 33.5162 41.6645 23.5003C41.6645 13.4842 33.5158 5.33545 23.5 5.33545Z" fill="#2D76EF"/>
<path d="M10.0781 18.8265L9.37889 19.7179C9.06584 20.117 9.13577 20.694 9.53451 21.0067C9.93361 21.3197 10.5106 21.2502 10.8233 20.8511L11.2073 20.362V26.4331H10.5927C10.0857 26.4331 9.67472 26.844 9.67472 27.3511C9.67472 27.8581 10.0857 28.269 10.5927 28.269H13.6263C14.133 28.269 14.5443 27.8581 14.5443 27.3511C14.5443 26.844 14.133 26.4331 13.6263 26.4331H13.0432V19.3931C13.0432 18.886 12.6319 18.4751 12.1253 18.4751H10.8003C10.5185 18.4751 10.252 18.6045 10.0781 18.8265Z" fill="#2D76EF"/>
<path d="M17.4551 28.2688H17.932C19.4481 28.2688 20.6812 27.0356 20.6812 25.5196V21.0699C20.6812 19.5538 19.4477 18.3203 17.932 18.3203H17.4551C15.939 18.3203 14.7058 19.5538 14.7058 21.0699V25.5196C14.7058 27.0356 15.939 28.2688 17.4551 28.2688ZM16.5417 21.0699C16.5417 20.5661 16.9516 20.1563 17.4551 20.1563H17.932C18.4354 20.1563 18.8453 20.5661 18.8453 21.0699V25.5196C18.8453 26.023 18.4354 26.4329 17.932 26.4329H17.4551C16.9516 26.4329 16.5417 26.023 16.5417 25.5196V21.0699Z" fill="#2D76EF"/>
<path d="M24.8529 28.2688C26.369 28.2688 27.6021 27.0356 27.6021 25.5196V21.0699C27.6021 19.5538 26.3686 18.3203 24.8529 18.3203H24.376C22.8599 18.3203 21.6267 19.5538 21.6267 21.0699V25.5196C21.6267 27.0356 22.8599 28.2688 24.376 28.2688H24.8529ZM23.4626 25.5196V21.0699C23.4626 20.5661 23.8725 20.1563 24.376 20.1563H24.8529C25.3563 20.1563 25.7662 20.5661 25.7662 21.0699V25.5196C25.7662 26.023 25.3563 26.4329 24.8529 26.4329H24.376C23.8725 26.4329 23.4626 26.0234 23.4626 25.5196Z" fill="#2D76EF"/>
<path d="M36.9755 18.2092C36.5656 17.9112 35.9916 18.0019 35.6932 18.4117L29.8605 26.4329C29.5622 26.8431 29.6529 27.4172 30.0631 27.7152C30.2259 27.8335 30.4149 27.8909 30.6021 27.8909C30.8857 27.8909 31.1658 27.7596 31.3454 27.5126L37.1781 19.4914C37.4764 19.0816 37.3854 18.5075 36.9755 18.2092Z" fill="#2D76EF"/>
<path d="M15.2315 14.7132C15.4456 14.7132 15.6607 14.6386 15.8346 14.4869C17.9567 12.6338 20.6787 11.6133 23.4996 11.6133C26.1388 11.6133 28.6276 12.4731 30.6974 14.0997C31.0961 14.4131 31.6731 14.3438 31.9865 13.9451C32.2995 13.5467 32.2303 12.9694 31.8319 12.6564C29.4352 10.7728 26.554 9.77734 23.4996 9.77734C20.2348 9.77734 17.0836 10.9589 14.6273 13.1039C14.2454 13.4374 14.206 14.0172 14.5394 14.3991C14.7209 14.607 14.9755 14.7132 15.2315 14.7132Z" fill="#2D76EF"/>
<path d="M15.063 33.8887C17.4591 35.772 20.3406 36.7674 23.395 36.7674C25.5142 36.7674 27.543 36.2898 29.4256 35.3482C29.8788 35.1215 30.0624 34.57 29.8358 34.1164C29.6088 33.6632 29.0577 33.4796 28.6041 33.7062C26.979 34.5195 25.2262 34.9315 23.395 34.9315C20.7562 34.9315 18.2669 34.072 16.1972 32.4451C15.7989 32.1321 15.2215 32.2013 14.9085 32.5997C14.5951 32.9984 14.6643 33.5753 15.063 33.8887Z" fill="#2D76EF"/>
<path d="M32.514 32.3189C32.3111 32.0148 31.931 31.857 31.572 31.9288C31.1912 32.0051 30.8915 32.3236 30.8409 32.709C30.7914 33.0834 30.9858 33.4603 31.3185 33.6381C31.6527 33.8171 32.073 33.7679 32.3581 33.518C32.7009 33.2164 32.7618 32.6979 32.514 32.3189Z" fill="#2D76EF"/>
<path d="M30.9559 18.0332C29.7647 18.0332 28.7954 19.0021 28.7954 20.1933C28.7954 21.3845 29.7647 22.3538 30.9559 22.3538C32.1467 22.3538 33.116 21.3845 33.116 20.1933C33.116 19.0021 32.1467 18.0332 30.9559 18.0332ZM30.9559 20.5178C30.7769 20.5178 30.6313 20.3722 30.6313 20.1933C30.6313 20.0144 30.7769 19.8688 30.9559 19.8688C31.1348 19.8688 31.28 20.0144 31.28 20.1933C31.28 20.3722 31.1348 20.5178 30.9559 20.5178Z" fill="#2D76EF"/>
<path d="M33.8904 25.7879C33.8904 26.9791 34.8596 27.9483 36.0505 27.9483C37.2417 27.9483 38.2109 26.9791 38.2109 25.7879C38.2109 24.5967 37.2417 23.6274 36.0505 23.6274C34.8596 23.6274 33.8904 24.5967 33.8904 25.7879ZM36.375 25.7879C36.375 25.9668 36.2298 26.1124 36.0508 26.1124C35.8719 26.1124 35.7263 25.9668 35.7263 25.7879C35.7263 25.609 35.8719 25.4634 36.0508 25.4634C36.2298 25.4634 36.375 25.609 36.375 25.7879Z" fill="#2D76EF"/>
<path d="M11.8851 10.4147C12.0328 10.7693 12.3935 10.9981 12.7772 10.9802C13.1559 10.9622 13.4886 10.7033 13.6055 10.344C13.7235 9.98115 13.5951 9.56663 13.2911 9.33534C12.9809 9.0994 12.5477 9.08577 12.2228 9.30056C11.8607 9.53973 11.7215 10.0156 11.8851 10.4147Z" fill="#2D76EF"/>
</g>
<defs>
<clipPath id="clip0">
<rect width="47" height="47" fill="white"/>
</clipPath>
</defs>
</svg>
