<svg width="47" height="47" viewBox="0 0 47 47" fill="none" xmlns="http://www.w3.org/2000/svg">
<g clip-path="url(#clip0)">
<path d="M24.6779 17.7691C24.571 17.4486 24.2713 17.2328 23.9342 17.2328H23.2988C25.6896 15.3379 27.0789 12.4509 27.0676 9.39964C27.0725 5.39894 24.7549 1.75917 21.1273 0.0709594C20.8851 -0.0401168 20.6021 -0.0202555 20.3778 0.123678C20.1534 0.267856 20.0176 0.516245 20.0176 0.783024V8.61647H13.7507V0.783024C13.7507 0.516245 13.6149 0.267856 13.3905 0.123678C13.1659 -0.0202555 12.8832 -0.0401168 12.6409 0.0709594C9.10562 1.68782 6.80097 5.17899 6.70387 9.06543C6.60677 12.9521 8.73365 16.5536 12.1841 18.3453V21.9329H10.2257C9.11224 21.9338 8.10961 22.6084 7.68909 23.6395C7.26833 24.6708 7.51353 25.8539 8.30896 26.6331C7.78178 27.1483 7.4841 27.8545 7.4841 28.5913C7.4841 29.3289 7.78178 30.0351 8.30896 30.5497C7.78178 31.0649 7.4841 31.7713 7.4841 32.5082C7.4841 33.2455 7.78178 33.9517 8.30896 34.4663C7.51353 35.2461 7.26833 36.4292 7.68909 37.4602C8.10961 38.4916 9.11224 39.1659 10.2257 39.1663H12.1841V42.2998C12.1841 44.896 14.2887 46.9998 16.8841 46.9998C19.4801 46.9998 21.5842 44.896 21.5842 42.2998V39.1663H40.3842V37.5998H26.2842V23.4997H40.3842V21.9329H26.0657L24.6779 17.7691ZM24.4145 21.9329H21.5842V18.7997H23.3692L24.4145 21.9329ZM21.5842 2.10907C23.8015 3.57415 25.2301 5.96977 25.4657 8.61647H21.5842V2.10907ZM13.2941 17.1495C10.4373 15.846 8.51812 13.0892 8.28689 9.95748C8.05591 6.82576 9.54992 3.81739 12.1841 2.10834V9.39964C12.1841 9.83218 12.5348 10.1828 12.9675 10.1828H25.4657C25.1822 13.2351 23.2738 15.897 20.4741 17.1453C20.1951 17.2735 20.0166 17.5526 20.0176 17.8598V21.9329H17.6676V18.0163H16.1007V21.9329H13.7507V17.8598C13.7519 17.5526 13.5732 17.2735 13.2941 17.1453V17.1495ZM9.05069 36.4248C9.05069 35.7759 9.57665 35.2497 10.2257 35.2497C10.6585 35.2497 11.0091 34.8991 11.0091 34.4663C11.0091 34.034 10.6585 33.6832 10.2257 33.6832C9.57665 33.6832 9.05069 33.1574 9.05069 32.5082C9.05069 31.8593 9.57665 31.3331 10.2257 31.3331C10.6585 31.3331 11.0091 30.9825 11.0091 30.5497C11.0091 30.1174 10.6585 29.7663 10.2257 29.7663C9.57665 29.7663 9.05069 29.2406 9.05069 28.5913C9.05069 27.9427 9.57665 27.4163 10.2257 27.4163C10.6585 27.4163 11.0091 27.0657 11.0091 26.6331C11.0091 26.2006 10.6585 25.8497 10.2257 25.8497C9.57665 25.8497 9.05069 25.324 9.05069 24.6747C9.05069 24.0259 9.57665 23.4997 10.2257 23.4997H24.7176V37.5998H10.2257C9.57665 37.5998 9.05069 37.074 9.05069 36.4248ZM20.0176 42.2998C20.0176 44.0309 18.6145 45.4332 16.8841 45.4332C15.1538 45.4332 13.7507 44.0309 13.7507 42.2998V39.1663H20.0176V42.2998Z" fill="white"/>
<path d="M18.4506 42.2997C18.4506 43.1651 17.7493 43.8666 16.884 43.8666C16.0189 43.8666 15.3174 43.1651 15.3174 42.2997C15.3174 41.4347 16.0189 40.7332 16.884 40.7332C17.7493 40.7332 18.4506 41.4347 18.4506 42.2997Z" fill="white"/>
<path d="M13.7507 12.4531H20.0176V14.0197H13.7507V12.4531Z" fill="white"/>
<path d="M27.8511 33.683C27.8511 34.9809 28.9032 36.033 30.2011 36.033C31.4987 36.033 32.5511 34.9809 32.5511 33.683C32.5511 32.3852 31.4987 31.333 30.2011 31.333C28.9032 31.333 27.8511 32.3852 27.8511 33.683ZM30.9843 33.683C30.9843 34.1155 30.6336 34.4662 30.2011 34.4662C29.7683 34.4662 29.4177 34.1155 29.4177 33.683C29.4177 33.2505 29.7683 32.8996 30.2011 32.8996C30.6336 32.8996 30.9843 33.2505 30.9843 33.683Z" fill="white"/>
</g>
<defs>
<clipPath id="clip0">
<rect width="47" height="47" fill="white"/>
</clipPath>
</defs>
</svg>
