<svg width="47" height="47" viewBox="0 0 47 47" fill="none" xmlns="http://www.w3.org/2000/svg">
<g clip-path="url(#clip0)">
<path d="M12.2004 36.3729C12.0507 36.161 11.8085 36.0359 11.5504 36.0359C11.2923 36.0359 11.0493 36.161 10.9003 36.3729L8.56538 39.6749C7.05017 41.7733 7.08283 44.2349 8.64823 45.7995C9.44805 46.5993 10.4996 47 11.5512 47C12.6019 47 13.6535 46.5993 14.4533 45.7995C15.5495 44.7025 16.4593 42.7579 14.5402 39.6805L12.2004 36.3729ZM13.3261 44.673C12.347 45.6513 10.7537 45.6521 9.77467 44.673C8.76852 43.6661 8.80038 42.0696 9.86151 40.6006L11.5504 38.2123L13.213 40.5624C14.8341 43.1642 13.6997 44.2994 13.3261 44.673Z" fill="white"/>
<path d="M45.0091 20.7126H42.6192V19.1193C42.6192 18.6788 42.2623 18.3227 41.8226 18.3227H37.0427C36.603 18.3227 36.2461 18.6788 36.2461 19.1193V20.7126H23.8775C22.7909 20.7126 21.9066 19.8291 21.9066 18.7417V8.76301H23.4999C23.9396 8.76301 24.2965 8.40691 24.2965 7.96637V3.18655C24.2965 2.74601 23.9396 2.38991 23.4999 2.38991H21.9066V0H7.56716V2.38991H5.97388C5.53414 2.38991 5.17725 2.74601 5.17725 3.18655V7.96637C5.17725 8.40691 5.53414 8.76301 5.97388 8.76301H7.56716V23.4466C7.56716 27.0068 9.18194 30.1941 11.7137 32.3251C11.8053 32.4518 11.9248 32.5522 12.0737 32.6072C14.0382 34.1335 16.4975 35.052 19.1726 35.052H36.2461V36.6453C36.2461 37.0858 36.603 37.4419 37.0427 37.4419H41.8226C42.2623 37.4419 42.6192 37.0858 42.6192 36.6453V35.052H45.0091V20.7126ZM9.16043 1.59327H20.3134V2.38991H9.16043V1.59327ZM6.77052 7.16973V3.98319H7.56716H21.9066H22.7033V7.16973H21.9066H7.56716H6.77052ZM19.1726 33.4588C16.9077 33.4588 14.8229 32.694 13.1436 31.421V29.4756H15.5335C15.9733 29.4756 16.3302 29.1195 16.3302 28.6789V26.289H18.7201C19.1598 26.289 19.5167 25.9329 19.5167 25.4924C19.5167 25.0518 19.1598 24.6958 18.7201 24.6958H15.5335C15.0938 24.6958 14.7369 25.0518 14.7369 25.4924V27.8823H12.347C11.9072 27.8823 11.5503 28.2384 11.5503 28.6789V29.9225C10.063 28.1747 9.16043 25.9154 9.16043 23.4466V8.76301H20.3134V18.7417C20.3134 20.707 21.9122 22.3058 23.8775 22.3058H36.2461V33.4588H19.1726ZM41.0259 35.8487H37.8394V35.052V20.7126V19.9159H41.0259V20.7126V35.052V35.8487ZM43.4158 33.4588H42.6192V22.3058H43.4158V33.4588Z" fill="white"/>
<path d="M5.41087 32.8955L3.8176 34.4888C3.50611 34.8002 3.50611 35.3037 3.8176 35.6152C3.97294 35.7705 4.17688 35.8486 4.38082 35.8486C4.58476 35.8486 4.7887 35.7705 4.94404 35.6152L6.53732 34.0219C6.8488 33.7104 6.8488 33.207 6.53732 32.8955C6.22583 32.584 5.72236 32.584 5.41087 32.8955Z" fill="white"/>
<path d="M5.97391 31.0689C5.97391 30.6283 5.61702 30.2722 5.17727 30.2722H2.78736C2.34762 30.2722 1.99072 30.6283 1.99072 31.0689C1.99072 31.5094 2.34762 31.8655 2.78736 31.8655H5.17727C5.61702 31.8655 5.97391 31.5094 5.97391 31.0689Z" fill="white"/>
<path d="M4.94404 26.5224C4.63256 26.2109 4.12908 26.2109 3.8176 26.5224C3.50611 26.8339 3.50611 27.3374 3.8176 27.6489L5.41087 29.2422C5.56622 29.3975 5.77016 29.4756 5.9741 29.4756C6.17803 29.4756 6.38197 29.3975 6.53732 29.2422C6.8488 28.9307 6.8488 28.4272 6.53732 28.1157L4.94404 26.5224Z" fill="white"/>
</g>
<defs>
<clipPath id="clip0">
<rect width="47" height="47" fill="white"/>
</clipPath>
</defs>
</svg>
