<svg width="47" height="47" viewBox="0 0 47 47" fill="none" xmlns="http://www.w3.org/2000/svg">
<g clip-path="url(#clip0)">
<path d="M44.6581 23.4841L42.5257 23.2171C41.8775 21.631 40.9461 20.1639 39.7885 18.8946L41.3563 12.2527C41.4208 11.9797 41.3569 11.6923 41.1828 11.4723C41.0088 11.2524 40.7438 11.1241 40.4633 11.1239L40.2628 11.1238C40.2616 11.1238 40.2607 11.1238 40.2596 11.1238C37.657 11.1238 35.3115 12.7612 34.389 15.163C33.7365 14.9037 33.0657 14.6901 32.3817 14.5282C31.8882 14.4116 31.3937 14.7168 31.2771 15.2103C31.1604 15.7037 31.4657 16.1982 31.9591 16.3149C34.2958 16.8676 36.3802 18.0492 38.0232 19.689C38.0832 19.7769 38.1581 19.8548 38.246 19.9177C39.4437 21.1748 40.3904 22.683 41.0045 24.3732C41.1221 24.697 41.4113 24.9278 41.7532 24.9706L44.4302 25.3057C44.8487 25.3582 45.1642 25.7157 45.1642 26.1374V30.7655C45.1642 31.1872 44.8486 31.5448 44.4302 31.5972L41.9495 31.9078C41.5927 31.9524 41.2948 32.2012 41.1874 32.5445C40.4515 34.8958 39.0533 36.9751 37.1436 38.5573C36.9331 38.7317 36.8113 38.9909 36.8113 39.2642V44.3381C36.8113 44.7935 36.4408 45.164 35.9855 45.164H30.6606C30.2052 45.164 29.8348 44.7935 29.8348 44.3381V42.4044C29.8348 41.8974 29.4237 41.4864 28.9168 41.4864H21.2046C20.6977 41.4864 20.2866 41.8974 20.2866 42.4044V44.3381C20.2866 44.7935 19.9161 45.164 19.4607 45.164H14.1358C13.6805 45.164 13.31 44.7935 13.31 44.3381V40.7554C13.31 40.4188 13.1257 40.1093 12.83 39.9487C8.70995 37.7118 6.15038 33.4129 6.15038 28.7296C6.15038 21.6954 11.8731 15.9727 18.9073 15.9727H20.0576C20.5645 15.9727 20.9755 15.5617 20.9755 15.0547C20.9755 14.5477 20.5645 14.1367 20.0576 14.1367H18.9073C12.093 14.1367 6.35527 18.8319 4.75755 25.1569H4.08495C2.84478 25.1569 1.83593 24.148 1.83593 22.9079C1.83593 21.6678 2.84478 20.6589 4.08495 20.6589C4.59185 20.6589 5.00292 20.2479 5.00292 19.7409C5.00292 19.2339 4.59185 18.823 4.08495 18.823C1.83254 18.823 0 20.6554 0 22.9079C0 25.1604 1.83254 26.9929 4.08495 26.9929H4.41827C4.35034 27.5626 4.31444 28.1419 4.31444 28.7296C4.31444 33.9022 7.04393 38.6649 11.4739 41.2898V44.3382C11.4739 45.806 12.668 47.0001 14.1357 47.0001H19.4605C20.9283 47.0001 22.1224 45.806 22.1224 44.3382V43.3224H27.9986V44.3382C27.9986 45.806 29.1927 47.0001 30.6605 47.0001H35.9853C37.453 47.0001 38.647 45.806 38.647 44.3382V39.6874C40.5109 38.0482 41.9174 35.9805 42.7498 33.6579L44.658 33.4189C45.9931 33.2519 46.9999 32.1111 46.9999 30.7655V26.1374C46.9999 24.7919 45.9932 23.6512 44.6581 23.4841ZM38.2469 17.4338C37.5621 16.8737 36.8287 16.3774 36.0572 15.9513C36.5644 14.494 37.8014 13.4097 39.2767 13.0712L38.2469 17.4338Z" fill="#2D76EF"/>
<path d="M36.5415 23.3099C36.3708 23.1392 36.134 23.041 35.8926 23.041C35.6512 23.041 35.4143 23.1392 35.2436 23.3099C35.0728 23.4807 34.9746 23.7175 34.9746 23.9589C34.9746 24.2003 35.0727 24.4372 35.2436 24.6079C35.4144 24.7787 35.6512 24.8769 35.8926 24.8769C36.134 24.8769 36.3708 24.7787 36.5415 24.6079C36.7122 24.4372 36.8105 24.2003 36.8105 23.9589C36.8105 23.7175 36.7122 23.4807 36.5415 23.3099Z" fill="#2D76EF"/>
<path d="M26.9185 5.35474C26.4116 5.35474 26.0005 5.76571 26.0005 6.2727V9.91382C26.0005 10.4208 26.4116 10.8318 26.9185 10.8318C27.4254 10.8318 27.8364 10.4208 27.8364 9.91382V6.2727C27.8364 5.7658 27.4254 5.35474 26.9185 5.35474Z" fill="#2D76EF"/>
<path d="M27.5674 2.29301C27.3967 2.12227 27.1599 2.02405 26.9185 2.02405C26.6769 2.02405 26.4402 2.12227 26.2695 2.29301C26.0987 2.46375 26.0005 2.70059 26.0005 2.94201C26.0005 3.18436 26.0986 3.42028 26.2695 3.59102C26.4402 3.76176 26.6769 3.85998 26.9185 3.85998C27.1599 3.85998 27.3967 3.76176 27.5674 3.59102C27.7381 3.42028 27.8364 3.18344 27.8364 2.94201C27.8364 2.70059 27.7381 2.46467 27.5674 2.29301Z" fill="#2D76EF"/>
<path d="M19.4609 0C18.954 0 18.543 0.410974 18.543 0.917967V2.47851C18.543 2.9855 18.954 3.39648 19.4609 3.39648C19.9678 3.39648 20.3789 2.9855 20.3789 2.47851V0.917967C20.3789 0.410974 19.9679 0 19.4609 0Z" fill="#2D76EF"/>
<path d="M10.4592 28.7296C10.4592 28.2226 10.0482 27.8116 9.54126 27.8116C9.03436 27.8116 8.62329 28.2226 8.62329 28.7296L8.62338 28.7783C8.6265 29.2833 9.03693 29.6906 9.54126 29.6906C9.54309 29.6906 9.54502 29.6906 9.54704 29.6906C10.0539 29.6874 10.4624 29.2738 10.4593 28.7668L10.4592 28.7296Z" fill="#2D76EF"/>
<path d="M14.5226 35.9522C12.9269 34.9811 11.6813 33.4892 11.0154 31.7512C10.8339 31.2776 10.3031 31.0409 9.82975 31.2224C9.35636 31.4038 9.11961 31.9346 9.301 32.4081C10.1116 34.5237 11.627 36.3393 13.5683 37.5206C13.7173 37.6113 13.8819 37.6545 14.0445 37.6545C14.3543 37.6545 14.6568 37.4976 14.8296 37.2136C15.0932 36.7805 14.9556 36.2158 14.5226 35.9522Z" fill="#2D76EF"/>
<path d="M19.4609 4.41095C17.335 4.41095 15.6055 6.14049 15.6055 8.26641C15.6055 10.3923 17.335 12.1219 19.4609 12.1219C21.5868 12.1219 23.3164 10.3923 23.3164 8.26641C23.3164 6.14049 21.5868 4.41095 19.4609 4.41095ZM19.4609 10.2859C18.3473 10.2859 17.4414 9.38 17.4414 8.26641C17.4414 7.15283 18.3473 6.24688 19.4609 6.24688C20.5745 6.24688 21.4805 7.15283 21.4805 8.26641C21.4805 9.38 20.5745 10.2859 19.4609 10.2859Z" fill="#2D76EF"/>
<path d="M31.0273 19.4609H30.2011C30.5641 18.8732 30.7741 18.1815 30.7741 17.4414C30.7741 15.3155 29.0446 13.5859 26.9187 13.5859C24.7928 13.5859 23.0632 15.3155 23.0632 17.4414C23.0631 18.1815 23.2732 18.8732 23.6361 19.4609H19.0937C18.5868 19.4609 18.1758 19.8719 18.1758 20.3789C18.1758 20.8859 18.5868 21.2969 19.0937 21.2969H31.0273C31.5342 21.2969 31.9453 20.8859 31.9453 20.3789C31.9453 19.8719 31.5343 19.4609 31.0273 19.4609ZM26.9187 19.4609C25.8051 19.4609 24.8992 18.555 24.8992 17.4414C24.8992 16.3278 25.8051 15.4219 26.9187 15.4219C28.0323 15.4219 28.9382 16.3278 28.9382 17.4414C28.9382 18.555 28.0322 19.4609 26.9187 19.4609Z" fill="#2D76EF"/>
</g>
<defs>
<clipPath id="clip0">
<rect width="47" height="47" fill="white"/>
</clipPath>
</defs>
</svg>
