<svg width="47" height="47" viewBox="0 0 47 47" fill="none" xmlns="http://www.w3.org/2000/svg">
<path d="M38.3835 4.7H37.6002V3.91667C37.5975 1.75447 35.8457 0.00267741 33.6835 0H8.61686C6.45466 0.00267741 4.70287 1.75447 4.7002 3.91667V38.3833C4.70287 40.5455 6.45466 42.2973 8.61686 42.3H9.40019V43.0833C9.40287 45.2455 11.1547 46.9973 13.3169 47H38.3835C40.5457 46.9973 42.2975 45.2455 42.3002 43.0833V8.61667C42.2975 6.45447 40.5457 4.70268 38.3835 4.7ZM31.3335 1.56667V5.15898L30.3207 4.14616C30.0147 3.84055 29.519 3.84055 29.213 4.14616L28.2002 5.15898V1.56667H31.3335ZM6.26686 38.3833V3.91667C6.26686 2.61889 7.31908 1.56667 8.61686 1.56667H26.6335V7.05C26.6335 7.3667 26.8244 7.65242 27.117 7.77367C27.4096 7.89491 27.7466 7.8276 27.9707 7.60384L29.7669 5.80768L31.563 7.60384C31.7872 7.8276 32.1241 7.89491 32.4167 7.77367C32.7093 7.65242 32.9002 7.3667 32.9002 7.05V1.56667H33.6835C34.9813 1.56667 36.0335 2.61889 36.0335 3.91667V38.3833C36.0335 39.6811 34.9813 40.7333 33.6835 40.7333H8.61686C7.31908 40.7333 6.26686 39.6811 6.26686 38.3833ZM40.7335 43.0833C40.7335 44.3811 39.6813 45.4333 38.3835 45.4333H13.3169C12.0191 45.4333 10.9669 44.3811 10.9669 43.0833V42.3H33.6835C35.8457 42.2973 37.5975 40.5455 37.6002 38.3833V6.26667H38.3835C39.6813 6.26667 40.7335 7.31889 40.7335 8.61667V43.0833Z" fill="white"/>
<path d="M17.1793 7.56285C17.0665 7.25686 16.7762 7.05223 16.4499 7.04993H10.1832C9.75064 7.04993 9.3999 7.40068 9.3999 7.83327V14.0999C9.3999 14.5325 9.75064 14.8833 10.1832 14.8833H16.4499C16.8825 14.8833 17.2332 14.5325 17.2332 14.0999V9.72428L19.3537 7.60378L18.2461 6.49609L17.1793 7.56285ZM15.6666 13.3166H10.9666V8.6166H15.6666V9.07559L14.0999 10.6423L13.0871 9.62943L11.9794 10.7371L13.5461 12.3038C13.8521 12.6094 14.3478 12.6094 14.6537 12.3038L15.6666 11.2909V13.3166Z" fill="white"/>
<path d="M18.2461 17.4629L17.1793 18.5296C17.0665 18.2237 16.7762 18.019 16.4499 18.0167H10.1832C9.75064 18.0167 9.3999 18.3675 9.3999 18.8001V25.0667C9.3999 25.4993 9.75064 25.8501 10.1832 25.8501H16.4499C16.8825 25.8501 17.2332 25.4993 17.2332 25.0667V20.6911L19.3537 18.5706L18.2461 17.4629ZM15.6666 24.2834H10.9666V19.5834H15.6666V20.0424L14.0999 21.609L13.0871 20.5962L11.9794 21.7039L13.5461 23.2706C13.8521 23.5762 14.3478 23.5762 14.6537 23.2706L15.6666 22.2577V24.2834Z" fill="white"/>
<path d="M16.4499 28.2H10.1832C9.75064 28.2 9.3999 28.5507 9.3999 28.9833V35.25C9.3999 35.6825 9.75064 36.0333 10.1832 36.0333H16.4499C16.8825 36.0333 17.2332 35.6825 17.2332 35.25V28.9833C17.2332 28.5507 16.8825 28.2 16.4499 28.2ZM15.6666 34.4666H10.9666V29.7666H15.6666V34.4666Z" fill="white"/>
<path d="M20.3667 11.75H28.2V13.3167H20.3667V11.75Z" fill="white"/>
<path d="M20.3667 8.6167H25.0667V10.1834H20.3667V8.6167Z" fill="white"/>
<path d="M20.3667 22.7166H28.2V24.2832H20.3667V22.7166Z" fill="white"/>
<path d="M20.3667 19.5833H25.0667V21.1499H20.3667V19.5833Z" fill="white"/>
<path d="M20.3667 32.9001H28.2V34.4668H20.3667V32.9001Z" fill="white"/>
<path d="M20.3667 29.7666H25.0667V31.3333H20.3667V29.7666Z" fill="white"/>
<path d="M26.6333 29.7666H28.2V31.3333H26.6333V29.7666Z" fill="white"/>
</svg>
