<svg width="25" height="14" viewBox="0 0 25 14" fill="none" xmlns="http://www.w3.org/2000/svg">
<path fill-rule="evenodd" clip-rule="evenodd" d="M12.32 13.8947H13.7328C13.7328 13.8947 14.1595 13.8478 14.3774 13.6129C14.5779 13.3973 14.5715 12.9924 14.5715 12.9924C14.5715 12.9924 14.5439 11.0967 15.4237 10.8175C16.291 10.5426 17.4048 12.6497 18.5852 13.4599C19.4779 14.0731 20.1562 13.9386 20.1562 13.9386L23.3126 13.8947C23.3126 13.8947 24.9637 13.7929 24.1808 12.4947C24.1167 12.3885 23.7249 11.5344 21.834 9.77921C19.8549 7.94224 20.1199 8.23937 22.504 5.06182C23.9559 3.12667 24.5364 1.94524 24.3551 1.43923C24.1821 0.957287 23.1143 1.08467 23.1143 1.08467L19.5603 1.10681C19.5603 1.10681 19.2969 1.07087 19.1015 1.18767C18.9106 1.30222 18.7877 1.56918 18.7877 1.56918C18.7877 1.56918 18.2252 3.06667 17.475 4.34019C15.8925 7.02745 15.2598 7.16928 15.0011 7.00242C14.3995 6.61353 14.5497 5.44012 14.5497 4.60651C14.5497 2.00235 14.9447 0.916538 13.7806 0.635459C13.3942 0.542086 13.11 0.48048 12.122 0.470533C10.8539 0.457377 9.78064 0.474383 9.17292 0.772148C8.76862 0.970123 8.45674 1.41131 8.64669 1.43666C8.88157 1.46811 9.41357 1.58009 9.69561 1.96417C10.0598 2.45959 10.047 3.57236 10.047 3.57236C10.047 3.57236 10.2562 6.63792 9.55828 7.01879C9.07922 7.27997 8.42209 6.74669 7.01123 4.30874C6.28832 3.05993 5.74253 1.67956 5.74253 1.67956C5.74253 1.67956 5.63728 1.42158 5.44958 1.28361C5.22176 1.11644 4.90346 1.06317 4.90346 1.06317L1.52633 1.08531C1.52633 1.08531 1.01936 1.09943 0.833262 1.31987C0.667694 1.51592 0.820106 1.92149 0.820106 1.92149C0.820106 1.92149 3.46405 8.10717 6.45774 11.2244C9.20276 14.0824 12.32 13.8947 12.32 13.8947Z" fill="white"/>
</svg>
