<svg width="47" height="47" viewBox="0 0 47 47" fill="none" xmlns="http://www.w3.org/2000/svg">
<g clip-path="url(#clip0)">
<path d="M46.2295 17.8053H37.7541V16.2643H46.2295C46.655 16.2643 47 15.9193 47 15.4938C47 15.0683 46.655 14.7233 46.2295 14.7233H43.918V9.3299C43.918 4.64901 40.1235 0.854492 35.4426 0.854492C30.7617 0.854492 26.9672 4.64901 26.9672 9.3299C26.9672 9.7554 27.3122 10.1004 27.7377 10.1004C28.1632 10.1004 28.5082 9.7554 28.5082 9.3299C28.5082 5.50002 31.6127 2.39548 35.4426 2.39548C39.2725 2.39548 42.377 5.50002 42.377 9.3299V14.7233H40.8361V9.3299C40.8361 6.35102 38.4215 3.93646 35.4426 3.93646C32.4637 3.93646 30.0492 6.35102 30.0492 9.3299C30.0492 9.7554 30.3942 10.1004 30.8197 10.1004C31.2452 10.1004 31.5902 9.7554 31.5902 9.3299C31.5902 7.2024 33.3151 5.47744 35.4426 5.47744C37.5701 5.47744 39.2951 7.2024 39.2951 9.3299V14.7233H37.7541V13.1824C37.7541 12.7569 37.4091 12.4119 36.9836 12.4119C36.5581 12.4119 36.2131 12.7569 36.2131 13.1824V20.8873C36.2131 21.3128 36.5581 21.6578 36.9836 21.6578C37.4091 21.6578 37.7541 21.3128 37.7541 20.8873V19.3463H39.2951V20.1168C39.2992 21.0927 39.9158 21.961 40.8361 22.2864V27.0512C40.8361 27.4767 40.4911 27.8217 40.0656 27.8217H38.5246V26.666C38.5246 25.1765 37.3173 23.9692 35.8279 23.9692H32.4886L33.3001 18.6928L33.8922 14.8403C33.9449 14.5635 33.8418 14.2798 33.6236 14.1011C33.4058 13.922 33.1074 13.8769 32.846 13.9829C32.5845 14.0887 32.402 14.3291 32.3701 14.6093L31.8776 17.8053H25.9093L25.4168 14.6063C25.3397 14.1989 24.9541 13.9258 24.5444 13.9882C24.1347 14.0503 23.8472 14.4258 23.8947 14.8373L24.4868 18.6898L25.2983 23.9692H10.7869V22.4283C10.7869 21.5773 10.0969 20.8873 9.2459 20.8873V19.3463C10.2218 19.3422 11.0901 18.7255 11.4155 17.8053H13.0984V19.3463C13.0984 19.7718 13.4434 20.1168 13.8689 20.1168C14.2944 20.1168 14.6393 19.7718 14.6393 19.3463V14.7233C14.6393 14.2978 14.2944 13.9529 13.8689 13.9529C13.4434 13.9529 13.0984 14.2978 13.0984 14.7233V16.2643H11.4155C11.0901 15.3441 10.2218 14.7275 9.2459 14.7233V7.78892C9.24327 5.66216 7.5202 3.93909 5.39344 3.93646H0.770492C0.344991 3.93646 0 4.28145 0 4.70695C0 5.13245 0.344991 5.47744 0.770492 5.47744H5.39344C6.66995 5.47744 7.70492 6.51241 7.70492 7.78892V14.7233H6.16393V8.55941C6.16393 7.70841 5.47395 7.01843 4.62295 7.01843H0.770492C0.344991 7.01843 0 7.36342 0 7.78892C0 8.21442 0.344991 8.55941 0.770492 8.55941H4.62295V14.7233H3.08197C2.65647 14.7233 2.31148 15.0683 2.31148 15.4938C2.31148 15.9193 2.65647 16.2643 3.08197 16.2643H9.2459C9.6714 16.2643 10.0164 16.6093 10.0164 17.0348C10.0164 17.4603 9.6714 17.8053 9.2459 17.8053H3.08197C2.65647 17.8053 2.31148 18.1503 2.31148 18.5758C2.31148 19.0013 2.65647 19.3463 3.08197 19.3463H4.62295V20.8873C3.77195 20.8873 3.08197 21.5773 3.08197 22.4283V23.9692H2.69672C1.20728 23.9692 0 25.1765 0 26.666V30.9037C0 32.1802 1.03497 33.2151 2.31148 33.2151V42.461C2.31148 45.014 4.38142 47.084 6.93443 47.084C9.48743 47.084 11.5574 45.014 11.5574 42.461V33.2151C12.1277 33.2133 12.677 32.9988 13.0984 32.6143C13.5197 32.9988 14.069 33.2133 14.6393 33.2151V42.461C14.6393 45.014 16.7093 47.084 19.2623 47.084C21.8153 47.084 23.8852 45.014 23.8852 42.461V33.2151C24.4556 33.2133 25.0049 32.9988 25.4262 32.6143C25.8476 32.9988 26.3969 33.2133 26.9672 33.2151V42.461C26.9672 45.014 29.0372 47.084 31.5902 47.084C34.1432 47.084 36.2131 45.014 36.2131 42.461V33.2151C37.4896 33.2151 38.5246 32.1802 38.5246 30.9037V29.3627H40.0656C41.3421 29.3627 42.377 28.3277 42.377 27.0512V22.2864C43.2973 21.961 43.9139 21.0927 43.918 20.1168V19.3463H46.2295C46.655 19.3463 47 19.0013 47 18.5758C47 18.1503 46.655 17.8053 46.2295 17.8053ZM31.6402 19.3463L30.9291 23.9692H26.8577L26.1467 19.3463H31.6402ZM6.16393 19.3463H7.70492V20.8873H6.16393V19.3463ZM4.62295 22.4283H9.2459V23.9692H4.62295V22.4283ZM10.0164 42.461C10.0164 44.163 8.63643 45.543 6.93443 45.543C5.23242 45.543 3.85246 44.163 3.85246 42.461V33.2151H10.0164V42.461ZM11.5574 31.6742H2.31148C1.88597 31.6742 1.54098 31.3292 1.54098 30.9037V29.3627H12.3279V30.9037C12.3279 31.3292 11.9829 31.6742 11.5574 31.6742ZM22.3443 42.461C22.3443 44.163 20.9643 45.543 19.2623 45.543C17.5603 45.543 16.1803 44.163 16.1803 42.461V33.2151H22.3443V42.461ZM23.8852 31.6742H14.6393C14.2138 31.6742 13.8689 31.3292 13.8689 30.9037V29.3627H20.8033C21.2288 29.3627 21.5738 29.0177 21.5738 28.5922C21.5738 28.1667 21.2288 27.8217 20.8033 27.8217H1.54098V26.666C1.54098 26.0275 2.05828 25.5102 2.69672 25.5102H35.8279C36.4663 25.5102 36.9836 26.0275 36.9836 26.666V27.8217H25.4262C25.0007 27.8217 24.6557 28.1667 24.6557 28.5922V30.9037C24.6557 31.3292 24.3107 31.6742 23.8852 31.6742ZM34.6721 42.461C34.6721 44.163 33.2922 45.543 31.5902 45.543C29.8882 45.543 28.5082 44.163 28.5082 42.461V33.2151H34.6721V42.461ZM36.9836 30.9037C36.9836 31.3292 36.6386 31.6742 36.2131 31.6742H26.9672C26.5417 31.6742 26.1967 31.3292 26.1967 30.9037V29.3627H36.9836V30.9037ZM42.377 20.1168C42.377 20.5423 42.0321 20.8873 41.6066 20.8873C41.1811 20.8873 40.8361 20.5423 40.8361 20.1168V19.3463H42.377V20.1168Z" fill="#2D76EF"/>
</g>
<defs>
<clipPath id="clip0">
<rect width="47" height="47" fill="white"/>
</clipPath>
</defs>
</svg>
