<svg width="47" height="47" viewBox="0 0 47 47" fill="none" xmlns="http://www.w3.org/2000/svg">
<path d="M4.86523 33.4387C4.35833 33.4387 3.94727 33.8498 3.94727 34.3567V41.125C3.94727 41.6319 4.35833 42.0429 4.86523 42.0429C5.37214 42.0429 5.7832 41.6319 5.7832 41.125V34.3567C5.7832 33.8497 5.37214 33.4387 4.86523 33.4387Z" fill="#2D76EF"/>
<path d="M9.45508 33.4387C8.94818 33.4387 8.53711 33.8498 8.53711 34.3567V41.125C8.53711 41.6319 8.94818 42.0429 9.45508 42.0429C9.96198 42.0429 10.373 41.6319 10.373 41.125V34.3567C10.373 33.8497 9.96198 33.4387 9.45508 33.4387Z" fill="#2D76EF"/>
<path d="M14.0449 33.4387C13.538 33.4387 13.127 33.8498 13.127 34.3567V41.125C13.127 41.6319 13.538 42.0429 14.0449 42.0429C14.5518 42.0429 14.9629 41.6319 14.9629 41.125V34.3567C14.9629 33.8497 14.5518 33.4387 14.0449 33.4387Z" fill="#2D76EF"/>
<path d="M18.6348 33.4387C18.1279 33.4387 17.7168 33.8498 17.7168 34.3567V41.125C17.7168 41.6319 18.1279 42.0429 18.6348 42.0429C19.1417 42.0429 19.5527 41.6319 19.5527 41.125V34.3567C19.5527 33.8497 19.1417 33.4387 18.6348 33.4387Z" fill="#2D76EF"/>
<path d="M23.2246 33.4387C22.7177 33.4387 22.3066 33.8498 22.3066 34.3567V41.125C22.3066 41.6319 22.7177 42.0429 23.2246 42.0429C23.7315 42.0429 24.1426 41.6319 24.1426 41.125V34.3567C24.1426 33.8497 23.7315 33.4387 23.2246 33.4387Z" fill="#2D76EF"/>
<path d="M27.8145 33.4387C27.3076 33.4387 26.8965 33.8498 26.8965 34.3567V41.125C26.8965 41.6319 27.3076 42.0429 27.8145 42.0429C28.3214 42.0429 28.7324 41.6319 28.7324 41.125V34.3567C28.7324 33.8497 28.3214 33.4387 27.8145 33.4387Z" fill="#2D76EF"/>
<path d="M27.8145 29.7668C27.573 29.7668 27.3362 29.865 27.1654 30.0358C26.9947 30.2066 26.8965 30.4434 26.8965 30.6848C26.8965 30.9272 26.9946 31.1631 27.1654 31.3337C27.3362 31.5045 27.573 31.6028 27.8145 31.6028C28.0559 31.6028 28.2927 31.5046 28.4634 31.3337C28.6341 31.1631 28.7324 30.9262 28.7324 30.6848C28.7324 30.4434 28.6342 30.2066 28.4634 30.0358C28.2927 29.865 28.0559 29.7668 27.8145 29.7668Z" fill="#2D76EF"/>
<path d="M39.2948 23.8672C36.9457 23.8672 34.8401 24.9251 33.4256 26.5882V22.6313C33.4256 22.348 33.2948 22.0805 33.0712 21.9066C32.8475 21.7327 32.5561 21.6717 32.2816 21.7416L29.7422 22.3871V10.832C29.7422 10.3251 29.3311 9.91406 28.8242 9.91406H24.6016V8.90154C24.6016 8.44449 24.9734 8.07253 25.4305 8.07253H29.2832C29.7901 8.07253 30.2012 7.66146 30.2012 7.15456C30.2012 6.64765 29.7901 6.23659 29.2832 6.23659H25.4305C23.961 6.23659 22.7656 7.43206 22.7656 8.90154V10.832V24.1603L20.1953 24.8135V10.832C20.1953 10.3251 19.7842 9.91406 19.2773 9.91406H15.0547V8.90154C15.0547 8.44449 15.4266 8.07253 15.8836 8.07253H19.7363C20.2432 8.07253 20.6543 7.66146 20.6543 7.15456C20.6543 6.64765 20.2432 6.23659 19.7363 6.23659H15.8836C14.4141 6.23659 13.2188 7.43206 13.2188 8.90154V10.832V26.5867L10.6484 27.2399V10.832C10.6484 10.3251 10.2374 9.91406 9.73047 9.91406H5.50781V4.94482C5.50781 4.24671 6.03124 3.67288 6.72541 3.61C7.125 3.57384 7.45473 3.28256 7.53983 2.89041C7.67238 2.27941 8.22326 1.83594 8.84968 1.83594C9.36815 1.83594 9.8454 2.14006 10.0653 2.61061C10.2056 2.91115 10.4972 3.11265 10.8282 3.13743C11.1584 3.16314 11.4775 3.00671 11.6612 2.7305C11.8169 2.49632 12.0772 2.35661 12.3572 2.35661C12.7027 2.35661 13.0168 2.57371 13.1388 2.89693C13.2737 3.2542 13.6157 3.49067 13.9976 3.49067H20.4707C20.9776 3.49067 21.3887 3.0796 21.3887 2.5727C21.3887 2.0658 20.9776 1.65473 20.4707 1.65473H14.5405C14.0471 0.957808 13.2338 0.520672 12.3572 0.520672C11.8847 0.520672 11.43 0.644781 11.0329 0.87152C10.4519 0.323217 9.67291 0 8.84968 0C7.58049 0 6.44203 0.76935 5.9421 1.89854C4.61252 2.28785 3.67188 3.5048 3.67188 4.94482V10.832V29.0131L0.691873 29.7706C0.284938 29.8739 0 30.2403 0 30.6602V46.082C0 46.5889 0.411066 47 0.917969 47H32.5078H46.082C46.5889 47 47 46.5889 47 46.082V31.5723C47 27.3236 43.5436 23.8672 39.2948 23.8672ZM33.4257 32.4903H45.1641V40.666H33.4257V32.4903ZM39.2948 25.7031C42.2188 25.7031 44.6497 27.8526 45.0917 30.6544H33.4981C33.94 27.8526 36.3708 25.7031 39.2948 25.7031ZM24.6016 11.75H27.9062V22.8538L24.6016 23.6937V11.75ZM15.0547 11.75H18.3594V25.2802L15.0547 26.1202V11.75ZM5.50781 11.75H8.8125V27.4287C8.8125 27.5219 8.82664 27.6118 8.85243 27.6965L5.50781 28.5465V11.75ZM1.83594 31.374L31.5898 23.8117V31.5723V45.1641H1.83594V31.374ZM33.4257 45.1641V42.502H45.1641V45.1641H33.4257Z" fill="#2D76EF"/>
<path d="M39.2949 34.5156C38.788 34.5156 38.377 34.9267 38.377 35.4336V37.7409C38.377 38.2478 38.788 38.6589 39.2949 38.6589C39.8018 38.6589 40.2129 38.2478 40.2129 37.7409V35.4336C40.2129 34.9267 39.8019 34.5156 39.2949 34.5156Z" fill="#2D76EF"/>
<path d="M24.1426 3.49072C24.384 3.49072 24.6208 3.3925 24.7915 3.22176C24.9622 3.05102 25.0605 2.81418 25.0605 2.57275C25.0605 2.33133 24.9623 2.09449 24.7915 1.92375C24.6208 1.7531 24.384 1.65479 24.1426 1.65479C23.9012 1.65479 23.6643 1.75301 23.4936 1.92375C23.3228 2.09449 23.2246 2.33133 23.2246 2.57275C23.2246 2.81418 23.3227 3.05102 23.4936 3.22176C23.6643 3.3925 23.9012 3.49072 24.1426 3.49072Z" fill="#2D76EF"/>
</svg>
